<svg width="51" height="46" viewBox="0 0 51 46" fill="none" xmlns="http://www.w3.org/2000/svg">
<path d="M41.1461 7.40332H9.89612C7.30728 7.40332 5.20862 9.30261 5.20862 11.6455V37.0986C5.20862 39.4415 7.30728 41.3408 9.89612 41.3408H41.1461C43.735 41.3408 45.8336 39.4415 45.8336 37.0986V11.6455C45.8336 9.30261 43.735 7.40332 41.1461 7.40332Z" stroke="white" stroke-width="4" stroke-linejoin="round"/>
<path d="M29.4274 22.958C30.7218 22.958 31.7711 22.0084 31.7711 20.8369C31.7711 19.6655 30.7218 18.7158 29.4274 18.7158C28.133 18.7158 27.0836 19.6655 27.0836 20.8369C27.0836 22.0084 28.133 22.958 29.4274 22.958Z" fill="white"/>
<path d="M37.2399 22.958C38.5343 22.958 39.5836 22.0084 39.5836 20.8369C39.5836 19.6655 38.5343 18.7158 37.2399 18.7158C35.9455 18.7158 34.8961 19.6655 34.8961 20.8369C34.8961 22.0084 35.9455 22.958 37.2399 22.958Z" fill="white"/>
<path d="M29.4274 30.0283C30.7218 30.0283 31.7711 29.0787 31.7711 27.9072C31.7711 26.7358 30.7218 25.7861 29.4274 25.7861C28.133 25.7861 27.0836 26.7358 27.0836 27.9072C27.0836 29.0787 28.133 30.0283 29.4274 30.0283Z" fill="white"/>
<path d="M37.2399 30.0283C38.5343 30.0283 39.5836 29.0787 39.5836 27.9072C39.5836 26.7358 38.5343 25.7861 37.2399 25.7861C35.9455 25.7861 34.8961 26.7358 34.8961 27.9072C34.8961 29.0787 35.9455 30.0283 37.2399 30.0283Z" fill="white"/>
<path d="M13.8024 30.0283C15.0968 30.0283 16.1461 29.0787 16.1461 27.9072C16.1461 26.7358 15.0968 25.7861 13.8024 25.7861C12.508 25.7861 11.4586 26.7358 11.4586 27.9072C11.4586 29.0787 12.508 30.0283 13.8024 30.0283Z" fill="white"/>
<path d="M21.6149 30.0283C22.9093 30.0283 23.9586 29.0787 23.9586 27.9072C23.9586 26.7358 22.9093 25.7861 21.6149 25.7861C20.3205 25.7861 19.2711 26.7358 19.2711 27.9072C19.2711 29.0787 20.3205 30.0283 21.6149 30.0283Z" fill="white"/>
<path d="M13.8024 37.0986C15.0968 37.0986 16.1461 36.149 16.1461 34.9775C16.1461 33.8061 15.0968 32.8564 13.8024 32.8564C12.508 32.8564 11.4586 33.8061 11.4586 34.9775C11.4586 36.149 12.508 37.0986 13.8024 37.0986Z" fill="white"/>
<path d="M21.6149 37.0986C22.9093 37.0986 23.9586 36.149 23.9586 34.9775C23.9586 33.8061 22.9093 32.8564 21.6149 32.8564C20.3205 32.8564 19.2711 33.8061 19.2711 34.9775C19.2711 36.149 20.3205 37.0986 21.6149 37.0986Z" fill="white"/>
<path d="M29.4274 37.0986C30.7218 37.0986 31.7711 36.149 31.7711 34.9775C31.7711 33.8061 30.7218 32.8564 29.4274 32.8564C28.133 32.8564 27.0836 33.8061 27.0836 34.9775C27.0836 36.149 28.133 37.0986 29.4274 37.0986Z" fill="white"/>
<path d="M13.0211 4.5752V7.40332M38.0211 4.5752V7.40332" stroke="white" stroke-width="4" stroke-linecap="round" stroke-linejoin="round"/>
<path d="M45.8336 14.4736H5.20862" stroke="white" stroke-width="4" stroke-linejoin="round"/>
</svg>
