<svg width="59" height="54" viewBox="0 0 59 54" fill="none" xmlns="http://www.w3.org/2000/svg">
<path fill-rule="evenodd" clip-rule="evenodd" d="M31.9378 28.7992C34.5015 28.7992 36.9603 29.7298 38.7732 31.3864C40.586 33.0429 41.6045 35.2897 41.6045 37.6325V42.0492C41.6045 42.6348 41.3498 43.1965 40.8966 43.6107C40.4434 44.0248 39.8287 44.2575 39.1878 44.2575C38.5468 44.2575 37.9322 44.0248 37.4789 43.6107C37.0257 43.1965 36.7711 42.6348 36.7711 42.0492V37.6325C36.7711 36.4611 36.2619 35.3377 35.3555 34.5094C34.449 33.6811 33.2197 33.2158 31.9378 33.2158H15.0211C13.7392 33.2158 12.5099 33.6811 11.6034 34.5094C10.697 35.3377 10.1878 36.4611 10.1878 37.6325V42.0492C10.1878 42.6348 9.93318 43.1965 9.47996 43.6107C9.02675 44.0248 8.41206 44.2575 7.77112 44.2575C7.13018 44.2575 6.51549 44.0248 6.06228 43.6107C5.60907 43.1965 5.35445 42.6348 5.35445 42.0492V37.6325C5.35445 35.2897 6.3729 33.0429 8.18576 31.3864C9.99861 29.7298 12.4574 28.7992 15.0211 28.7992H31.9378ZM46.4378 28.7992C48.3606 28.7992 50.2047 29.4971 51.5643 30.7396C52.924 31.982 53.6878 33.6671 53.6878 35.4242V39.8408C53.6878 40.4265 53.4332 40.9882 52.98 41.4024C52.5268 41.8165 51.9121 42.0492 51.2711 42.0492C50.6302 42.0492 50.0155 41.8165 49.5623 41.4024C49.1091 40.9882 48.8545 40.4265 48.8545 39.8408V35.4242C48.8545 34.8385 48.5998 34.2768 48.1466 33.8626C47.6934 33.4485 47.0787 33.2158 46.4378 33.2158H43.0158C42.1799 31.4661 40.8618 29.9444 39.1902 28.7992H46.4378ZM23.4795 6.71582C26.3637 6.71582 29.1298 7.7628 31.1692 9.62645C33.2087 11.4901 34.3545 14.0177 34.3545 16.6533C34.3545 19.2889 33.2087 21.8166 31.1692 23.6802C29.1298 25.5438 26.3637 26.5908 23.4795 26.5908C20.5952 26.5908 17.8291 25.5438 15.7897 23.6802C13.7502 21.8166 12.6045 19.2889 12.6045 16.6533C12.6045 14.0177 13.7502 11.4901 15.7897 9.62645C17.8291 7.7628 20.5952 6.71582 23.4795 6.71582ZM44.0211 13.3408C45.9439 13.3408 47.788 14.0388 49.1476 15.2812C50.5073 16.5237 51.2711 18.2088 51.2711 19.9658C51.2711 21.7229 50.5073 23.408 49.1476 24.6504C47.788 25.8928 45.9439 26.5908 44.0211 26.5908C42.0983 26.5908 40.2542 25.8928 38.8946 24.6504C37.535 23.408 36.7711 21.7229 36.7711 19.9658C36.7711 18.2088 37.535 16.5237 38.8946 15.2812C40.2542 14.0388 42.0983 13.3408 44.0211 13.3408ZM23.4795 11.1325C21.8771 11.1325 20.3404 11.7141 19.2074 12.7495C18.0743 13.7849 17.4378 15.1891 17.4378 16.6533C17.4378 18.1175 18.0743 19.5218 19.2074 20.5571C20.3404 21.5925 21.8771 22.1742 23.4795 22.1742C25.0818 22.1742 26.6185 21.5925 27.7516 20.5571C28.8846 19.5218 29.5211 18.1175 29.5211 16.6533C29.5211 15.1891 28.8846 13.7849 27.7516 12.7495C26.6185 11.7141 25.0818 11.1325 23.4795 11.1325ZM44.0211 17.7575C43.3802 17.7575 42.7655 17.9902 42.3123 18.4043C41.8591 18.8184 41.6045 19.3801 41.6045 19.9658C41.6045 20.5515 41.8591 21.1132 42.3123 21.5273C42.7655 21.9415 43.3802 22.1742 44.0211 22.1742C44.6621 22.1742 45.2768 21.9415 45.73 21.5273C46.1832 21.1132 46.4378 20.5515 46.4378 19.9658C46.4378 19.3801 46.1832 18.8184 45.73 18.4043C45.2768 17.9902 44.6621 17.7575 44.0211 17.7575Z" fill="white"/>
</svg>
