<svg width="51" height="46" viewBox="0 0 51 46" fill="none" xmlns="http://www.w3.org/2000/svg">
<path d="M39.6045 22.9577C39.6045 23.4577 39.385 23.9373 38.9943 24.2909C38.6036 24.6445 38.0737 24.8431 37.5211 24.8431C36.9686 24.8431 36.4387 24.6445 36.048 24.2909C35.6573 23.9373 35.4378 23.4577 35.4378 22.9577C35.4378 22.4576 35.6573 21.9781 36.048 21.6245C36.4387 21.2709 36.9686 21.0723 37.5211 21.0723C38.0737 21.0723 38.6036 21.2709 38.9943 21.6245C39.385 21.9781 39.6045 22.4576 39.6045 22.9577Z" fill="white"/>
<path fill-rule="evenodd" clip-rule="evenodd" d="M20.7378 6.46094H27.2211C31.0503 6.46094 34.0836 6.46094 36.4565 6.74941C38.8982 7.0473 40.8753 7.67326 42.4357 9.08355C44.3607 10.8276 44.9753 13.1617 45.1982 16.1916C46.4003 16.6686 47.3086 17.6811 47.4065 18.9631C47.417 19.0781 47.417 19.2007 47.417 19.3138V26.6028C47.417 26.716 47.417 26.8385 47.4086 26.9516C47.3086 28.2337 46.4003 29.2481 45.1982 29.727C44.9753 32.755 44.3607 35.0891 42.4357 36.8331C40.8753 38.2434 38.8982 38.8694 36.4565 39.1673C34.0815 39.4557 31.0503 39.4557 27.2211 39.4557H20.7378C16.9086 39.4557 13.8753 39.4557 11.5024 39.1673C9.0607 38.8694 7.08362 38.2434 5.5232 36.8331C3.96487 35.4209 3.2732 33.6317 2.94403 31.422C2.62528 29.2726 2.62528 26.5293 2.62528 23.0639V22.8527C2.62528 19.3874 2.62528 16.6422 2.94403 14.4947C3.2732 12.285 3.96487 10.4957 5.5232 9.08355C7.08362 7.67326 9.0607 7.0473 11.5024 6.74941C13.8774 6.46094 16.9086 6.46094 20.7378 6.46094ZM42.0378 30.0286H38.0003C33.5315 30.0286 29.7065 26.9592 29.7065 22.9583C29.7065 18.9575 33.5315 15.888 37.9982 15.888H42.0357C41.7982 13.3597 41.2628 12.0229 40.2232 11.084C39.342 10.2864 38.1336 9.80755 36.0378 9.55302C33.8982 9.29283 31.0753 9.28906 27.1024 9.28906H20.8524C16.8795 9.28906 14.0586 9.29283 11.9149 9.55302C9.82112 9.80755 8.61278 10.2864 7.73153 11.084C6.85028 11.8815 6.3232 12.9751 6.04195 14.8699C5.75445 16.8081 5.75028 19.361 5.75028 22.9564C5.75028 26.5519 5.75445 29.1067 6.04195 31.0449C6.3232 32.9397 6.85237 34.0333 7.73362 34.8308C8.61487 35.6283 9.8232 36.1072 11.919 36.3618C14.0607 36.6219 16.8815 36.6257 20.8545 36.6257H27.1045C31.0774 36.6257 33.9003 36.6219 36.042 36.3618C38.1357 36.1072 39.344 35.6283 40.2253 34.8308C41.2649 33.8919 41.8003 32.557 42.0378 30.0268M10.9586 15.4167C10.9586 15.0416 11.1232 14.682 11.4163 14.4168C11.7093 14.1516 12.1067 14.0026 12.5211 14.0026H20.8545C21.2689 14.0026 21.6663 14.1516 21.9593 14.4168C22.2523 14.682 22.417 15.0416 22.417 15.4167C22.417 15.7917 22.2523 16.1514 21.9593 16.4166C21.6663 16.6817 21.2689 16.8307 20.8545 16.8307H12.5211C12.1067 16.8307 11.7093 16.6817 11.4163 16.4166C11.1232 16.1514 10.9586 15.7917 10.9586 15.4167ZM43.6128 18.7161H38.0003C35.0336 18.7161 32.8315 20.7128 32.8315 22.9583C32.8315 25.2039 35.0336 27.2005 37.9982 27.2005H43.6607C44.0899 27.176 44.2753 26.9139 44.2899 26.7556V19.1611C44.2753 19.0027 44.0899 18.7407 43.6607 18.718L43.6128 18.7161Z" fill="white"/>
<path d="M42.0378 30.0286H38.0003C33.5315 30.0286 29.7065 26.9592 29.7065 22.9583C29.7065 18.9575 33.5315 15.888 37.9982 15.888H42.0357C41.7982 13.3597 41.2628 12.0229 40.2232 11.084C39.342 10.2864 38.1336 9.80755 36.0378 9.55302C33.8982 9.29283 31.0753 9.28906 27.1024 9.28906H20.8524C16.8795 9.28906 14.0586 9.29283 11.9149 9.55302C9.82112 9.80755 8.61278 10.2864 7.73153 11.084C6.85028 11.8815 6.3232 12.9751 6.04195 14.8699C5.75445 16.8081 5.75028 19.361 5.75028 22.9564C5.75028 26.5519 5.75445 29.1067 6.04195 31.0449C6.3232 32.9397 6.85237 34.0333 7.73362 34.8308C8.61487 35.6283 9.8232 36.1072 11.919 36.3618C14.0607 36.6219 16.8815 36.6257 20.8545 36.6257H27.1045C31.0774 36.6257 33.9003 36.6219 36.042 36.3618C38.1357 36.1072 39.344 35.6283 40.2253 34.8308C41.2649 33.8919 41.8003 32.557 42.0378 30.0268M20.7378 6.46094H27.2211C31.0503 6.46094 34.0836 6.46094 36.4565 6.74941C38.8982 7.0473 40.8753 7.67326 42.4357 9.08355C44.3607 10.8276 44.9753 13.1617 45.1982 16.1916C46.4003 16.6686 47.3086 17.6811 47.4065 18.9631C47.417 19.0781 47.417 19.2007 47.417 19.3138V26.6028C47.417 26.716 47.417 26.8385 47.4086 26.9516C47.3086 28.2337 46.4003 29.2481 45.1982 29.727C44.9753 32.755 44.3607 35.0891 42.4357 36.8331C40.8753 38.2434 38.8982 38.8694 36.4565 39.1673C34.0815 39.4557 31.0503 39.4557 27.2211 39.4557H20.7378C16.9086 39.4557 13.8753 39.4557 11.5024 39.1673C9.0607 38.8694 7.08362 38.2434 5.5232 36.8331C3.96487 35.4209 3.2732 33.6317 2.94403 31.422C2.62528 29.2726 2.62528 26.5293 2.62528 23.0639V22.8527C2.62528 19.3874 2.62528 16.6422 2.94403 14.4947C3.2732 12.285 3.96487 10.4957 5.5232 9.08355C7.08362 7.67326 9.0607 7.0473 11.5024 6.74941C13.8774 6.46094 16.9086 6.46094 20.7378 6.46094ZM10.9586 15.4167C10.9586 15.0416 11.1232 14.682 11.4163 14.4168C11.7093 14.1516 12.1067 14.0026 12.5211 14.0026H20.8545C21.2689 14.0026 21.6663 14.1516 21.9593 14.4168C22.2523 14.682 22.417 15.0416 22.417 15.4167C22.417 15.7917 22.2523 16.1514 21.9593 16.4166C21.6663 16.6817 21.2689 16.8307 20.8545 16.8307H12.5211C12.1067 16.8307 11.7093 16.6817 11.4163 16.4166C11.1232 16.1514 10.9586 15.7917 10.9586 15.4167ZM43.6128 18.7161H38.0003C35.0336 18.7161 32.8315 20.7128 32.8315 22.9583C32.8315 25.2039 35.0336 27.2005 37.9982 27.2005H43.6607C44.0899 27.176 44.2753 26.9139 44.2899 26.7556V19.1611C44.2753 19.0027 44.0899 18.7407 43.6607 18.718L43.6128 18.7161Z" stroke="white"/>
</svg>
